# xmcd
#
# Track frame offsets:
#	150
#	18263
#	36333
#	52327
#	66606
#	87644
#	101864
#	115265
#	136905
#	148507
#	163482
#	176308
#	192197
#	214826
#
# Disc length: 3130 seconds
#
# Revision: 11
# Processed by: cddbd v1.5.2PL0 Copyright (c) Steve Scherf et al.
# Submitted via: Jack! The Knife 20 Magnifico
#
DISCID=db0c380e
DTITLE=Def Leppard - X
DYEAR=2002
DGENRE=Hard Rock
TTITLE0=Now
TTITLE1=Unbelievable
TTITLE2=You're So Beautiful
TTITLE3=Everyday
TTITLE4=Long Long Way To Go
TTITLE5=Four Letter Word
TTITLE6=Torn To Shreds
TTITLE7=Love Don't Lie
TTITLE8=Gravity
TTITLE9=Cry
TTITLE10=Girl Like You
TTITLE11=Let Me Be The One
TTITLE12=Scar
TTITLE13=Kiss The Day
EXTD=Pete Woodroffe and Def Leppard
EXTT0=Frederiksen, Collen, Elliott, Campbell, Savage, Allen
EXTT1=Aldeheim, Carlsson, Martin
EXTT2=Frederiksen, Collen, Elliott, Campbell, Savage, Allen
EXTT3=Frederiksen, Collen, Elliott, Campbell, Savage, Allen
EXTT4=Hector, Robson
EXTT5=Collen, Elliott, Campbell, Savage, Allen
EXTT6=Collen, Savage, Elliott, Campbell, Allen
EXTT7=Elliott, Collen, Campbell, Savage, Allen
EXTT8=Collen, Elliott, Woodroffe, Campbell, Savage, Allen
EXTT9=Collen, Elliott, Campbell, Savage, Allen
EXTT10=Campbell, Collen, Elliott, Savage, Allen
EXTT11=Elliott, Campbell, Collen, Savage, Allen
EXTT12=Collen, Elliott, Campbell, Savage, Woodroffe, Allen
EXTT13=Savage, Collen, Elliott, Campbell, Allen
PLAYORDER=
